<svg version="1.1" id="Layer_1" xmlns="http://www.w3.org/2000/svg" xmlns:xlink="http://www.w3.org/1999/xlink" x="0px" y="0px"
	 width="100%" viewBox="0 0 512 512" enable-background="new 0 0 512 512" xml:space="preserve">
<path fill="#ebe3d5" opacity="1.000000" stroke="none" 
	d="
M1.000000,196.000000 
	C1.000000,130.666672 1.000000,65.833336 1.000000,1.000000 
	C171.666672,1.000000 342.333344,1.000000 513.000000,1.000000 
	C513.000000,171.666672 513.000000,342.333344 513.000000,513.000000 
	C342.333344,513.000000 171.666672,513.000000 1.000000,513.000000 
	C1.000000,407.500000 1.000000,302.000000 1.000000,196.000000 
M424.500000,43.006416 
	C299.521759,43.006454 174.543488,43.017368 49.565254,42.957775 
	C45.517242,42.955845 42.875774,42.890808 42.882217,48.506901 
	C43.041672,187.482681 43.025963,326.458679 42.919792,465.434601 
	C42.916466,469.786957 44.060505,471.088776 48.506878,471.085175 
	C187.482742,470.972504 326.458740,470.973999 465.434631,471.080170 
	C469.787109,471.083496 471.125519,469.943390 471.091461,465.492371 
	C470.891052,439.331787 470.993591,413.168854 470.993561,387.006714 
	C470.993561,274.359528 470.964447,161.712311 471.093109,49.065266 
	C471.098572,44.285297 469.853149,42.778278 464.990479,42.896828 
	C451.833923,43.217583 438.664398,43.006538 424.500000,43.006416 
z"/>
<path fill="#394951" opacity="1.000000" stroke="none" 
	d="
M425.000000,43.006424 
	C438.664398,43.006538 451.833923,43.217583 464.990479,42.896828 
	C469.853149,42.778278 471.098572,44.285297 471.093109,49.065266 
	C470.964447,161.712311 470.993561,274.359528 470.993561,387.006714 
	C470.993591,413.168854 470.891052,439.331787 471.091461,465.492371 
	C471.125519,469.943390 469.787109,471.083496 465.434631,471.080170 
	C326.458740,470.973999 187.482742,470.972504 48.506878,471.085175 
	C44.060505,471.088776 42.916466,469.786957 42.919792,465.434601 
	C43.025963,326.458679 43.041672,187.482681 42.882217,48.506901 
	C42.875774,42.890808 45.517242,42.955845 49.565254,42.957775 
	C174.543488,43.017368 299.521759,43.006454 425.000000,43.006424 
M433.496735,449.085815 
	C438.593597,449.085815 443.690460,449.085815 448.804230,449.085815 
	C448.804230,320.730103 448.804230,193.021988 448.804230,65.152100 
	C320.817291,65.152100 193.109344,65.152100 65.284378,65.152100 
	C65.284378,193.213715 65.284378,321.039734 65.284378,449.085815 
	C187.933945,449.085815 310.216095,449.085815 433.496735,449.085815 
z"/>
<path fill="#E3F3FB" opacity="1.000000" stroke="none" 
	d="
M432.997498,449.085815 
	C310.216095,449.085815 187.933945,449.085815 65.284378,449.085815 
	C65.284378,321.039734 65.284378,193.213715 65.284378,65.152100 
	C193.109344,65.152100 320.817291,65.152100 448.804230,65.152100 
	C448.804230,193.021988 448.804230,320.730103 448.804230,449.085815 
	C443.690460,449.085815 438.593597,449.085815 432.997498,449.085815 
M258.500031,86.113182 
	C201.220505,86.113182 143.940964,86.113182 86.389267,86.113182 
	C86.389267,178.861282 86.389267,271.081696 86.389267,363.574707 
	C200.221695,363.574707 313.778046,363.574707 427.610657,363.574707 
	C427.610657,271.081909 427.610657,178.861496 427.610657,86.113182 
	C371.392578,86.113182 315.446320,86.113182 258.500031,86.113182 
z"/>
<path fill="#3A4B52" opacity="1.000000" stroke="none" 
	d="
M259.000061,86.113182 
	C315.446320,86.113182 371.392578,86.113182 427.610657,86.113182 
	C427.610657,178.861496 427.610657,271.081909 427.610657,363.574707 
	C313.778046,363.574707 200.221695,363.574707 86.389267,363.574707 
	C86.389267,271.081696 86.389267,178.861282 86.389267,86.113182 
	C143.940964,86.113182 201.220505,86.113182 259.000061,86.113182 
M345.668610,261.128174 
	C323.479034,270.655487 301.266510,280.130005 279.125946,289.769928 
	C275.985046,291.137482 274.290527,290.701874 272.056427,287.951355 
	C262.083862,275.673492 252.183029,263.296753 241.512527,251.636322 
	C227.198776,235.994659 211.638412,221.623291 193.181808,210.828522 
	C175.718918,200.614975 164.589066,201.246674 148.570343,213.557449 
	C131.927048,226.348236 119.847534,243.104935 108.786064,260.644165 
	C107.817421,262.180115 107.746124,264.461426 107.740524,266.397919 
	C107.673035,289.727112 107.800430,313.057404 107.606659,336.385193 
	C107.568932,340.927094 108.890701,342.346161 113.517181,342.340363 
	C209.167511,342.220062 304.818024,342.220612 400.468353,342.339081 
	C405.071442,342.344788 406.417755,340.962982 406.393280,336.399933 
	C406.223358,304.739532 406.310211,273.077820 406.285675,241.416519 
	C406.284332,239.692673 406.023315,237.969025 405.814453,235.400391 
	C385.474091,244.116104 365.928528,252.491241 345.668610,261.128174 
M309.040070,253.593796 
	C339.783295,240.410324 370.496246,227.155151 401.308563,214.135178 
	C405.110779,212.528534 406.487854,210.610458 406.463318,206.439987 
	C406.282227,175.622696 406.261047,144.803116 406.471985,113.986198 
	C406.505676,109.065559 405.359253,107.490128 400.155090,107.499023 
	C304.701721,107.662231 209.247971,107.648949 113.794487,107.525703 
	C109.146820,107.519707 107.492493,108.547729 107.522675,113.536751 
	C107.734291,148.518494 107.630630,183.502090 107.648598,218.485107 
	C107.649376,220.002213 107.853416,221.519226 108.043007,224.149353 
	C110.459572,221.292999 111.882431,219.223434 113.677780,217.554611 
	C122.554970,209.303070 130.923431,200.339310 140.604950,193.154236 
	C157.830750,180.370239 176.851868,178.600159 196.118439,188.537277 
	C205.096970,193.168152 213.829056,198.541748 221.910004,204.596786 
	C243.639175,220.878387 261.868317,240.788483 278.859802,261.838501 
	C281.039429,264.538727 282.713104,265.105499 285.890167,263.613831 
	C293.267639,260.150085 300.842926,257.107605 309.040070,253.593796 
z"/>
<path fill="#8ABA18" opacity="1.000000" stroke="none" 
	d="
M346.025787,260.997253 
	C365.928528,252.491241 385.474091,244.116104 405.814453,235.400391 
	C406.023315,237.969025 406.284332,239.692673 406.285675,241.416519 
	C406.310211,273.077820 406.223358,304.739532 406.393280,336.399933 
	C406.417755,340.962982 405.071442,342.344788 400.468353,342.339081 
	C304.818024,342.220612 209.167511,342.220062 113.517181,342.340363 
	C108.890701,342.346161 107.568932,340.927094 107.606659,336.385193 
	C107.800430,313.057404 107.673035,289.727112 107.740524,266.397919 
	C107.746124,264.461426 107.817421,262.180115 108.786064,260.644165 
	C119.847534,243.104935 131.927048,226.348236 148.570343,213.557449 
	C164.589066,201.246674 175.718918,200.614975 193.181808,210.828522 
	C211.638412,221.623291 227.198776,235.994659 241.512527,251.636322 
	C252.183029,263.296753 262.083862,275.673492 272.056427,287.951355 
	C274.290527,290.701874 275.985046,291.137482 279.125946,289.769928 
	C301.266510,280.130005 323.479034,270.655487 346.025787,260.997253 
z"/>
<path fill="#5EBEE8" opacity="1.000000" stroke="none" 
	d="
M308.689026,253.744080 
	C300.842926,257.107605 293.267639,260.150085 285.890167,263.613831 
	C282.713104,265.105499 281.039429,264.538727 278.859802,261.838501 
	C261.868317,240.788483 243.639175,220.878387 221.910004,204.596786 
	C213.829056,198.541748 205.096970,193.168152 196.118439,188.537277 
	C176.851868,178.600159 157.830750,180.370239 140.604950,193.154236 
	C130.923431,200.339310 122.554970,209.303070 113.677780,217.554611 
	C111.882431,219.223434 110.459572,221.292999 108.043007,224.149353 
	C107.853416,221.519226 107.649376,220.002213 107.648598,218.485107 
	C107.630630,183.502090 107.734291,148.518494 107.522675,113.536751 
	C107.492493,108.547729 109.146820,107.519707 113.794487,107.525703 
	C209.247971,107.648949 304.701721,107.662231 400.155090,107.499023 
	C405.359253,107.490128 406.505676,109.065559 406.471985,113.986198 
	C406.261047,144.803116 406.282227,175.622696 406.463318,206.439987 
	C406.487854,210.610458 405.110779,212.528534 401.308563,214.135178 
	C370.496246,227.155151 339.783295,240.410324 308.689026,253.744080 
M257.018097,170.588318 
	C257.022644,171.420914 256.981812,172.256607 257.038483,173.085648 
	C258.220184,190.371857 266.392059,203.284912 282.196655,210.356949 
	C298.150879,217.495941 313.663696,215.465744 327.099792,204.157211 
	C340.542572,192.843079 344.978607,177.951462 340.927002,160.937210 
	C336.084595,140.601944 316.651917,127.213623 295.511871,129.084412 
	C274.698242,130.926315 258.655670,147.854950 257.018097,170.588318 
z"/>
<path fill="#394951" opacity="1.000000" stroke="none" 
	d="
M257.032837,170.130798 
	C258.655670,147.854950 274.698242,130.926315 295.511871,129.084412 
	C316.651917,127.213623 336.084595,140.601944 340.927002,160.937210 
	C344.978607,177.951462 340.542572,192.843079 327.099792,204.157211 
	C313.663696,215.465744 298.150879,217.495941 282.196655,210.356949 
	C266.392059,203.284912 258.220184,190.371857 257.038483,173.085648 
	C256.981812,172.256607 257.022644,171.420914 257.032837,170.130798 
M282.368164,184.029984 
	C289.781403,192.811127 299.808136,195.338058 309.088043,190.763916 
	C317.912903,186.414062 322.843323,176.309906 320.483337,166.971222 
	C318.237183,158.083130 312.617126,152.446060 303.528717,150.706665 
	C294.818115,149.039597 287.623230,152.072311 282.523071,159.101410 
	C276.873291,166.887970 276.926636,175.187256 282.368164,184.029984 
z"/>
<path fill="#F1E311" opacity="1.000000" stroke="none" 
	d="
M282.161560,183.722443 
	C276.926636,175.187256 276.873291,166.887970 282.523071,159.101410 
	C287.623230,152.072311 294.818115,149.039597 303.528717,150.706665 
	C312.617126,152.446060 318.237183,158.083130 320.483337,166.971222 
	C322.843323,176.309906 317.912903,186.414062 309.088043,190.763916 
	C299.808136,195.338058 289.781403,192.811127 282.161560,183.722443 
z"/>
</svg>