<?xml version="1.0" encoding="UTF-8"?>
<!DOCTYPE svg PUBLIC "-//W3C//DTD SVG 1.1//EN" "http://www.w3.org/Graphics/SVG/1.1/DTD/svg11.dtd">
<!-- Creator: CorelDRAW X7 -->
<svg xmlns="http://www.w3.org/2000/svg" xml:space="preserve" width="80mm" height="20mm" version="1.1" style="shape-rendering:geometricPrecision; text-rendering:geometricPrecision; image-rendering:optimizeQuality; fill-rule:evenodd; clip-rule:evenodd"
viewBox="0 0 8000 2000"
 xmlns:xlink="http://www.w3.org/1999/xlink">
 <defs>
  <style type="text/css">
   <![CDATA[
    .fil0 {fill:#1F1B20;fill-rule:nonzero}
   ]]>
  </style>
 </defs>
 <g id="Layer_x0020_1">
  <metadata id="CorelCorpID_0Corel-Layer"/>
  <g id="_2359904421376">
   <path class="fil0" d="M479 921l-78 0c-100,0 -182,-31 -246,-92 -67,-70 -101,-156 -101,-256l0 -426c0,-31 11,-58 34,-80 23,-23 49,-34 80,-34 33,0 60,11 82,34 23,22 35,49 35,80l0 426c0,22 4,46 13,71 19,30 50,46 96,46l37 0 737 0c101,0 183,31 246,92 67,70 101,156 101,256l0 815c0,31 -11,57 -34,80 -22,22 -49,34 -79,34 -33,0 -61,-12 -83,-34 -23,-23 -34,-49 -34,-80l0 -815c0,-22 -5,-46 -13,-70 -19,-31 -51,-47 -96,-47l-697 0z"/>
   <g>
    <path class="fil0" d="M285 1504l0 349c0,31 -12,57 -34,80 -23,23 -50,34 -80,34 -33,0 -61,-11 -83,-34 -23,-23 -34,-49 -34,-80l0 -349 0 -326c0,-31 11,-57 34,-80 22,-23 49,-34 80,-34 33,0 60,11 83,34 22,23 34,49 34,80l0 326z"/>
    <path class="fil0" d="M7685 921l147 0c31,0 58,-11 80,-34 23,-22 34,-50 34,-83 0,-31 -11,-58 -34,-80 -22,-23 -49,-34 -80,-34l-147 0 -529 0c-100,0 -183,32 -249,95 -65,65 -98,149 -98,253l0 815c0,31 11,58 34,80 22,23 50,34 83,34 30,0 57,-11 80,-34 22,-22 34,-49 34,-80l0 -815c0,-78 37,-117 113,-117l532 0z"/>
    <path class="fil0" d="M3712 1549l0 304c0,31 -11,57 -34,80 -22,23 -49,34 -80,34 -32,0 -60,-11 -82,-34 -23,-23 -34,-49 -34,-80l0 -304 0 -371c0,-31 11,-57 34,-80 22,-23 49,-34 79,-34 33,0 61,11 83,34 23,23 34,49 34,80l0 371z"/>
    <path class="fil0" d="M3743 921l-148 0c-30,0 -57,-11 -79,-34 -23,-22 -34,-50 -34,-83 0,-31 11,-58 34,-80 22,-23 49,-34 79,-34l148 0 751 0c100,0 183,32 249,95 65,65 98,149 98,253l0 815c0,31 -11,57 -34,80 -22,22 -50,34 -83,34 -31,0 -57,-12 -80,-34 -22,-23 -33,-49 -33,-80l0 -815c0,-78 -38,-117 -114,-117l-754 0z"/>
    <path class="fil0" d="M2209 1967l-99 0c-100,0 -185,-34 -254,-102 -62,-64 -92,-146 -92,-246l0 -581c0,-88 25,-164 76,-227 64,-81 152,-121 267,-121l659 0 121 0c100,0 185,34 255,102 61,63 92,146 92,246l0 127 0 456c0,87 -26,162 -77,225 -66,81 -156,121 -270,121l-777 0 99 0zm-215 -476l0 135c0,45 15,77 46,96 25,9 48,14 70,14l99 0 682 0c47,0 80,-16 99,-47 9,-24 13,-48 13,-70l0 -454 0 -134c0,-45 -15,-78 -46,-96 -24,-9 -48,-14 -70,-14l-121 0 -663 0c-45,0 -77,16 -96,47 -9,24 -13,48 -13,70l0 588 0 -135z"/>
    <path class="fil0" d="M5536 1967l-98 0c-101,0 -186,-34 -255,-102 -62,-64 -92,-146 -92,-246l0 -581c0,-88 25,-164 76,-227 64,-81 153,-121 267,-121l659 0 121 0c100,0 185,34 255,102 61,63 92,146 92,246l0 127 0 456c0,87 -26,162 -77,225 -66,81 -156,121 -270,121l-776 0 98 0zm-215 -476l0 135c0,45 15,77 46,96 25,9 48,14 71,14l98 0 682 0c47,0 80,-16 99,-47 9,-24 13,-48 13,-70l0 -454 0 -134c0,-45 -15,-78 -45,-96 -25,-9 -49,-14 -71,-14l-121 0 -663 0c-45,0 -77,16 -96,47 -9,24 -13,48 -13,70l0 588 0 -135z"/>
   </g>
  </g>
 </g>
</svg>
