<?xml version="1.0" encoding="UTF-8"?>
<!-- Created with Inkscape (http://www.inkscape.org/) -->
<svg width="2567.6" height="777.2" version="1.1" xmlns="http://www.w3.org/2000/svg">
 <title>Insta360 logo</title>
 <g transform="matrix(1.33333 0 0 -1.33333 0 777.2)">
  <g transform="translate(337.6 303.2)">
   <path d="m0 0c-10.2-10.2-26.8-10.2-37 0s-10.2 26.8 0 37 26.8 10.2 37 0 10.2-26.7 0-37m14.5 52.7c-17.1 17.1-39.8 26.5-64 26.5s-46.9-9.4-64-26.5c-35.3-35.3-35.3-92.7 0-128 17.1-17.1 39.8-26.5 64-26.5s46.9 9.4 64 26.5c35.3 35.3 35.3 92.7 0 128m273.8 51h-35.3c-4.3 0-7.8-3.5-7.8-7.8v-215.5c0-4.3 3.5-7.8 7.8-7.8h35.3c4.3 0 7.8 3.5 7.8 7.8v215.6c0 4.3-3.5 7.7-7.8 7.7m180.7-70c-4.2 3.5-16.7 13.9-39.7 16.6-15.4 1.8-30.1 4-55.3-2.2-25.3-6.2-37.8-15.4-42.6-19.9-1.6-1.5-2.5-3.5-2.5-5.6v-141.9c0-4.2 3.4-8 7.7-8h33.6c4.2 0 7.7 3.8 7.7 8v87.2c0 10.8.2 14.3.2 26.4s14.5 15.8 29.9 15.8c12.6 0 26.7-3.8 26.7-15.8 0-6.7-.2-11.7-.2-16.2v-97.4c0-4.2 3.4-8 7.7-8h34.5c4.2 0 7.7 3.8 7.7 8v102.2c-.1 22-3.9 41.3-15.4 50.8m293.1-117.5c-3.4-.6-7.8-1-13.3-1.1-7.6-.1-13.6.3-15.4 2.1s-2.8 4.9-2.8 12.1l-.2 72.3h28.3c4.3 0 7.9 3.5 7.9 7.9l.1 25.9c0 4.3-3.4 7.7-7.7 7.7h-28.2v37.2c0 4.3-3.5 7.8-7.8 7.8h-34.6c-4.3 0-7.8-3.5-7.8-12.1v-159.9c0-6.6-1.4-22 10-31.9 11.4-10 30.6-11.3 46.6-11.3 12.6-.1 22.7 1.4 28.8 2.7 3.7.8 6.3 4.1 6.2 7.9l-1.2 25.6c-.1 4.5-4.3 7.9-8.9 7.1m-156 63.7c-21.6 2.6-41.6 6-47.1 9.2-5.6 3.3-4.9 14.7-1.5 18.8 4.8 5.8 26.7 4.5 39.4 3.2 15.9-1.7 28.7-4.9 36.6-7.4 4.7-1.5 9.5 1.7 10 6.5l2.6 24.2c.4 3.5-1.7 6.9-5.1 8.1-17.6 6.2-30.6 10-59.1 10-12.4 0-26.8-1.4-39.7-6-20.7-7.4-26.6-21.9-27.9-34.7-.6-6.4-1.1-9.5-1.1-17.9.1-13.8 2.9-24.8 10.6-32.1 7.8-7.4 24.8-13.1 50.7-16.6 23-3.1 28.5-5.8 32.4-8.6 5.5-4 5-17.8 1.3-21-6-5.2-20.2-6.4-37.3-5.3s-35.3 6.3-46 9.9c-4.8 1.6-9.9-1.8-10.2-6.8l-1.6-25c-.2-3 1.4-5.8 4.1-7.3 13.7-7.3 43.4-12.8 66.8-12.8 25.8 0 46 5.3 56.9 14.7 12.5 10.8 14.2 24.3 14.2 41.7 0 13.2.2 29.6-8.4 38.5-8.8 8.6-17.7 13.9-40.6 16.7m285.7-65.3c-8.3-5.7-20.7-6.7-30.5-6.8s-21.5 2.1-26 6.8c-3.8 4-2.4 5.2-2.4 11.1 0 8.7 3.8 15.1 12.5 18.5 8.7 3.5 21.4 3.6 29.3 3.8 14.3.4 24.5-1.5 24.5-1.5v-7.8c0-15 .9-18.4-7.4-24.1m29.6 126.5c-14.7 7.5-31.4 11.2-50.3 11.2-26.2 0-51.6-3.4-66.6-10.7-2.7-1.3-4.3-4.2-4.2-7.2l1.4-25c.3-5.1 5.4-8.4 10.1-6.7 12.3 4.7 33.8 11 54.3 11.2 13.9.2 20.9-1.3 25.8-3.9 4.9-2.7 6.9-5.7 6.9-12.8 0-5.8-.1-15.4-.1-15.4s-24 1.7-35.5 1c-15.9-1-30.7-2.9-47.3-11.3-13.6-7-24.5-16.8-24.5-38v-22.3c0-14.8 9-26.6 21.5-32.8 13.6-6.8 28.9-10.2 57.1-10.2 38.6 0 62.7 16.2 70.5 22.4 1.8 1.4 2.8 3.6 2.8 5.9v102.1c0 20.8-7.3 35-21.9 42.5m194.5-87.4c0 10.8-5.7 30.1-24.8 36.4-4.8 1.6-7.4 2.3-9.6 2.3 5.4 2.1 10.7 4.8 17.6 11.5 7 6.7 10.2 17.3 10.2 30.6v11c0 19-8.4 35.5-25.1 44.5-13.2 7.1-31.2 9.4-47.4 9.4-33.3 0-56.5-9-66.3-15-2.4-1.5-3.8-4.1-3.5-6.9l1.8-23.7c.4-5.1 5.6-8.2 10.3-6.3 11 4.7 30.1 11.5 48.3 12 8.8.2 21.4-.2 27.8-2.8 7.2-2.9 11.7-9 11.8-15.7.1-7.2.1-6.1.1-10.6 0-9.9-3.6-12.3-6.8-15.2-4.5-4-12.9-5.2-23-6.4-6.4-.8-21.9-1.8-35.2-2.2-4-.1-7.2-3.4-7.2-7.4l-.1-23.8c0-4.1 3.3-7.4 7.4-7.4 11.6-.1 27.5-.3 39.1-1.5 16.1-1.7 29.7-6.1 29.7-19.3v-13.7c0-19.6-17.1-22.5-42.7-22.5-16.7 0-35.8 7.2-47 12.3-4.7 2.1-10-1.1-10.4-6.2l-1.9-25.3c-.2-2.7 1.1-5.4 3.4-6.8 8.3-5.2 29.7-16.7 60-16.7 21.8 0 48.9 4.8 63.2 15.3 5.1 3.8 20.2 17.9 20.2 39.5v15.9c.1 12.7.1 5.2.1 14.7m307.4 79.1v-48.8c0-16.1-.2-23-.2-34.5v-11.2c0-14.1-.9-17.3-7.6-23.4-5.9-5.4-16.5-5.5-21.8-5.5-8.2 0-15.4 2.2-20.7 6.9-5.7 5.1-6.3 10-6.3 29 0 11.7-.1 19.4-.1 39.4 0 14.6.2 26.8.1 39.7-.1 14.9 1.1 23 9 29.3 5.5 4.3 10.4 6 18.6 6 7.7 0 17.3-1.8 22.1-6.1 7.1-6.4 6.9-13.8 6.9-20.8m48.2-48.8v57c0 18.9-10.5 39-30.1 48.7-12.2 6.1-29.2 9.6-46.9 9.6-18 0-35.3-2.1-49.9-12.1-17.4-11.9-24.1-32.7-24.1-52.3v-98.1c0-33 11.7-45.7 23.2-53.5 13.8-9.3 33.1-15.3 52.3-15.3 21.3 0 47.5 5.7 63.2 25.1 10.4 12.8 12.4 35.1 12.4 55.9-.1 21.4-.1 11-.1 35m-226-66.1c-5.6-7.4-18.3-9-28.1-9-10 0-19.5 1.4-26 9s-5.3 16.6-5.3 28.7c0 15 .1 24.3.1 24.3s16.7 7.2 32.3 6.8c9.3-.3 19.6-.4 26-7.4s6.9-13 6.9-26.1c0-11.8-.2-18.9-5.9-26.3m26.3 90.7c-9.7 6.2-31.9 10.6-47.6 10.7-17.5.2-38.4-6.1-38.4-6.1s0 12.2.3 23.7c.5 19.2 28.4 23.8 42.7 23.7 14.5-.1 30.8-4.1 40.6-6.9 4.5-1.3 9 1.9 9.4 6.5l1.7 23.5c.2 3.2-1.6 6.3-4.7 7.4-14.2 5.5-31.9 8.2-50.4 8.2-10.1 0-28.6 1-47.3-6.9-13.8-5.8-35.6-20.6-35.6-47v-113.3c0-13 5.7-37.3 20.6-48.5 19.1-14.4 36.6-15.5 54-15.5 19.1 0 32.1.4 48.1 8.9 20.4 10.9 28.7 32 29.3 54.5.4 15 0 21.6-.8 33.8-.7 12.1.9 28.9-21.9 43.3"/>
  </g>
  <g transform="translate(374.7 205.3)">
   <path d="m0 0c-23.1-23.1-53.9-35.899-86.6-35.899s-63.5 12.7-86.6 35.899c-47.8 47.7-47.8 125.4 0 173.2 23.1 23.1 53.9 35.901 86.6 35.901s63.5-12.701 86.6-35.901c47.8-47.7 47.8-125.399 0-173.2m65.8 164.601c-.3.599-1.8 3.799-2 4.299-6.4 14.3-4.1 31.701 7.1 43.8.3.2 1.2 1.2 1.7 1.7.3.3.6.6.8 1 2.3 3.701 1.8 8.6-1.4 11.8-.1.1-.2.2-.4.3-.8.601-1.7 1.101-2.6 1.601l-1 .5c-58.3 30.399-125.1 38.699-188 25l-.2-.301c-32.1-6.4-62.7-22-87.6-46.9-54.7-54.7-64.7-137-30.1-201.9.3-.6 1.6-2.8 1.8-3.399 5.6-14.201 2.9-30.8-8.1-42.5-.3-.3-1-1.201-1-1.201-3.8-3.799-3.8-9.799 0-13.599.9-.801 1.8-1.5 2.9-2.101l.1-.099c58.7-30.601 126.1-38.8 189.5-24.5 32 6.399 62.6 22 87.4 46.899 53.9 54 64.3 135.101 31.1 199.601"/>
  </g>
 </g>
</svg>