<?xml version="1.0" encoding="UTF-8" standalone="no"?>
<svg
     xmlns:dc="http://purl.org/dc/elements/1.1/"
     xmlns:cc="http://creativecommons.org/ns#"
     xmlns:rdf="http://www.w3.org/1999/02/22-rdf-syntax-ns#"
     xmlns:svg="http://www.w3.org/2000/svg"
     xmlns="http://www.w3.org/2000/svg"
     version="1.1"
     id="svg19836"
     viewBox="0 0 300 300"
     height="300"
     width="300">
    <defs
         id="defs19838">
        <clipPath
             id="clipPath19701"
             clipPathUnits="userSpaceOnUse">
            <path
                 id="path19703"
                 d="m 28.346,638.929 121.89,0 0,123.591 -121.89,0 0,-123.591 z" />
        </clipPath>
        <linearGradient
             id="linearGradient19685"
             spreadMethod="pad"
             gradientTransform="matrix(82.9077,53.532806,53.532806,-82.9077,55.001724,749.19165)"
             gradientUnits="userSpaceOnUse"
             y2="0"
             x2="1"
             y1="0"
             x1="0">
            <stop
                 id="stop19687"
                 offset="0"
                 style="stop-opacity:1;stop-color:#ffeb6e" />
            <stop
                 id="stop19689"
                 offset="0.475"
                 style="stop-opacity:1;stop-color:#ffffff" />
            <stop
                 id="stop19691"
                 offset="0.525"
                 style="stop-opacity:1;stop-color:#ffffff" />
            <stop
                 id="stop19693"
                 offset="1"
                 style="stop-opacity:1;stop-color:#ffe400" />
        </linearGradient>
        <linearGradient
             id="linearGradient19661"
             spreadMethod="pad"
             gradientTransform="matrix(86.143402,51.249893,51.249893,-86.143402,47.376755,741.19165)"
             gradientUnits="userSpaceOnUse"
             y2="0"
             x2="1"
             y1="0"
             x1="0">
            <stop
                 id="stop19663"
                 offset="0"
                 style="stop-opacity:1;stop-color:#ffea61" />
            <stop
                 id="stop19665"
                 offset="0.46"
                 style="stop-opacity:1;stop-color:#ffffff" />
            <stop
                 id="stop19667"
                 offset="0.54"
                 style="stop-opacity:1;stop-color:#ffffff" />
            <stop
                 id="stop19669"
                 offset="1"
                 style="stop-opacity:1;stop-color:#ffe400" />
        </linearGradient>
        <linearGradient
             id="linearGradient19637"
             spreadMethod="pad"
             gradientTransform="matrix(89.390198,48.980194,48.980194,-89.390198,39.876755,733.37909)"
             gradientUnits="userSpaceOnUse"
             y2="0"
             x2="1"
             y1="0"
             x1="0">
            <stop
                 id="stop19639"
                 offset="0"
                 style="stop-opacity:1;stop-color:#ffe851" />
            <stop
                 id="stop19641"
                 offset="0.445"
                 style="stop-opacity:1;stop-color:#ffffff" />
            <stop
                 id="stop19643"
                 offset="0.555"
                 style="stop-opacity:1;stop-color:#ffffff" />
            <stop
                 id="stop19645"
                 offset="1"
                 style="stop-opacity:1;stop-color:#ffe400" />
        </linearGradient>
        <linearGradient
             id="linearGradient19613"
             spreadMethod="pad"
             gradientTransform="matrix(92.615707,46.702499,46.702499,-92.615707,32.314194,725.25415)"
             gradientUnits="userSpaceOnUse"
             y2="0"
             x2="1"
             y1="0"
             x1="0">
            <stop
                 id="stop19615"
                 offset="0"
                 style="stop-opacity:1;stop-color:#ffe73f" />
            <stop
                 id="stop19617"
                 offset="0.43"
                 style="stop-opacity:1;stop-color:#ffffff" />
            <stop
                 id="stop19619"
                 offset="0.57"
                 style="stop-opacity:1;stop-color:#ffffff" />
            <stop
                 id="stop19621"
                 offset="1"
                 style="stop-opacity:1;stop-color:#ffe400" />
        </linearGradient>
        <linearGradient
             id="linearGradient19589"
             spreadMethod="pad"
             gradientTransform="matrix(95.952896,44.478805,44.478805,-95.952896,24.626694,717.06659)"
             gradientUnits="userSpaceOnUse"
             y2="0"
             x2="1"
             y1="0"
             x1="0">
            <stop
                 id="stop19591"
                 offset="0"
                 style="stop-opacity:1;stop-color:#ffe528" />
            <stop
                 id="stop19593"
                 offset="0.415"
                 style="stop-opacity:1;stop-color:#ffffff" />
            <stop
                 id="stop19595"
                 offset="0.585"
                 style="stop-opacity:1;stop-color:#ffffff" />
            <stop
                 id="stop19597"
                 offset="1"
                 style="stop-opacity:1;stop-color:#ffe400" />
        </linearGradient>
        <linearGradient
             id="linearGradient19565"
             spreadMethod="pad"
             gradientTransform="matrix(99.376709,42.285294,42.285294,-99.376709,16.439255,708.31665)"
             gradientUnits="userSpaceOnUse"
             y2="0"
             x2="1"
             y1="0"
             x1="0">
            <stop
                 id="stop19567"
                 offset="0"
                 style="stop-opacity:1;stop-color:#ffe400" />
            <stop
                 id="stop19569"
                 offset="0.4"
                 style="stop-opacity:1;stop-color:#ffffff" />
            <stop
                 id="stop19571"
                 offset="0.6"
                 style="stop-opacity:1;stop-color:#ffffff" />
            <stop
                 id="stop19573"
                 offset="1"
                 style="stop-opacity:1;stop-color:#ffe400" />
        </linearGradient>
        <linearGradient
             id="linearGradient19541"
             spreadMethod="pad"
             gradientTransform="matrix(103.26799,40.262604,40.262604,-103.26799,7.8767548,699.06659)"
             gradientUnits="userSpaceOnUse"
             y2="0"
             x2="1"
             y1="0"
             x1="0">
            <stop
                 id="stop19543"
                 offset="0"
                 style="stop-opacity:1;stop-color:#ffe400" />
            <stop
                 id="stop19545"
                 offset="0.385"
                 style="stop-opacity:1;stop-color:#ffffff" />
            <stop
                 id="stop19547"
                 offset="0.615"
                 style="stop-opacity:1;stop-color:#ffffff" />
            <stop
                 id="stop19549"
                 offset="1"
                 style="stop-opacity:1;stop-color:#ffe400" />
        </linearGradient>
        <linearGradient
             id="linearGradient19517"
             spreadMethod="pad"
             gradientTransform="matrix(107.17799,38.206696,38.206696,-107.17799,-0.8732758,689.69159)"
             gradientUnits="userSpaceOnUse"
             y2="0"
             x2="1"
             y1="0"
             x1="0">
            <stop
                 id="stop19519"
                 offset="0"
                 style="stop-opacity:1;stop-color:#ffe400" />
            <stop
                 id="stop19521"
                 offset="0.37"
                 style="stop-opacity:1;stop-color:#ffffff" />
            <stop
                 id="stop19523"
                 offset="0.63"
                 style="stop-opacity:1;stop-color:#ffffff" />
            <stop
                 id="stop19525"
                 offset="1"
                 style="stop-opacity:1;stop-color:#ffe400" />
        </linearGradient>
        <linearGradient
             id="linearGradient19493"
             spreadMethod="pad"
             gradientTransform="matrix(111.492,36.247497,36.247497,-111.492,-10.810776,679.44165)"
             gradientUnits="userSpaceOnUse"
             y2="0"
             x2="1"
             y1="0"
             x1="0">
            <stop
                 id="stop19495"
                 offset="0"
                 style="stop-opacity:1;stop-color:#ffe400" />
            <stop
                 id="stop19497"
                 offset="0.355"
                 style="stop-opacity:1;stop-color:#ffffff" />
            <stop
                 id="stop19499"
                 offset="0.645"
                 style="stop-opacity:1;stop-color:#ffffff" />
            <stop
                 id="stop19501"
                 offset="1"
                 style="stop-opacity:1;stop-color:#ffe400" />
        </linearGradient>
        <linearGradient
             id="linearGradient19469"
             spreadMethod="pad"
             gradientTransform="matrix(116.104,34.325501,34.325501,-116.104,-20.185776,669.06659)"
             gradientUnits="userSpaceOnUse"
             y2="0"
             x2="1"
             y1="0"
             x1="0">
            <stop
                 id="stop19471"
                 offset="0"
                 style="stop-opacity:1;stop-color:#ffe400" />
            <stop
                 id="stop19473"
                 offset="0.34"
                 style="stop-opacity:1;stop-color:#ffffff" />
            <stop
                 id="stop19475"
                 offset="0.66"
                 style="stop-opacity:1;stop-color:#ffffff" />
            <stop
                 id="stop19477"
                 offset="1"
                 style="stop-opacity:1;stop-color:#ffe400" />
        </linearGradient>
    </defs>
    <metadata
         id="metadata19841">
        <rdf:RDF>
            <cc:Work
                 rdf:about="">
                <dc:format>image/svg+xml</dc:format>
                <dc:type
                     rdf:resource="http://purl.org/dc/dcmitype/StillImage" />
                <dc:title></dc:title>
            </cc:Work>
        </rdf:RDF>
    </metadata>
    <g
         transform="translate(-365.88688,-297.9039)"
         id="layer1">
        <path
             id="path19455"
             style="fill:#ffe100;fill-opacity:1;fill-rule:nonzero;stroke:none"
             d="m 366.88688,596.9039 298,0 0,-298 -298,0 0,298 z" />
        <g
             id="g19457"
             transform="matrix(3.5066662,0,0,-3.5066662,267.48692,2972.8071)">
            <g
                 id="g19459">
                <g
                     id="g19465">
                    <g
                         id="g19467">
                        <path
                             id="path19479"
                             style="fill:url(#linearGradient19469);stroke:none"
                             d="m 36.056,689 c -2.581,-0.764 -5.151,-1.545 -7.71,-2.345 l 0,0 0,-6.661 c 3.19,0.879 6.38,1.787 9.565,2.729 l 0,0 c 18.861,5.577 37.15,12.144 54.822,19.621 l 0,0 C 73.837,699.01 54.919,694.576 36.056,689" />
                    </g>
                </g>
            </g>
        </g>
        <g
             id="g19481"
             transform="matrix(3.5066662,0,0,-3.5066662,267.48692,2972.8071)">
            <g
                 id="g19483">
                <g
                     id="g19489">
                    <g
                         id="g19491">
                        <path
                             id="path19503"
                             style="fill:url(#linearGradient19493);stroke:none"
                             d="m 43.727,700.255 c -5.172,-1.682 -10.298,-3.435 -15.381,-5.257 l 0,0 0,-5.609 c 5.739,1.658 11.471,3.416 17.198,5.275 l 0,0 c 18.086,5.881 35.617,12.633 52.554,20.18 l 0,0 C 79.961,710.985 61.813,706.135 43.727,700.255" />
                    </g>
                </g>
            </g>
        </g>
        <g
             id="g19505"
             transform="matrix(3.5066662,0,0,-3.5066662,267.48692,2972.8071)">
            <g
                 id="g19507">
                <g
                     id="g19513">
                    <g
                         id="g19515">
                        <path
                             id="path19527"
                             style="fill:url(#linearGradient19517);stroke:none"
                             d="m 50.977,711.039 c -7.65,-2.727 -15.195,-5.607 -22.631,-8.635 l 0,0 0,-4.577 c 8.164,2.485 16.319,5.176 24.46,8.077 l 0,0 c 17.371,6.194 34.193,13.174 50.433,20.872 l 0,0 c -17.446,-4.308 -34.89,-9.545 -52.262,-15.737" />
                    </g>
                </g>
            </g>
        </g>
        <g
             id="g19529"
             transform="matrix(3.5066662,0,0,-3.5066662,267.48692,2972.8071)">
            <g
                 id="g19531">
                <g
                     id="g19537">
                    <g
                         id="g19539">
                        <path
                             id="path19551"
                             style="fill:url(#linearGradient19541);stroke:none"
                             d="m 57.875,721.324 c -10.04,-3.915 -19.886,-8.086 -29.529,-12.498 l 0,0 0,-3.359 c 10.473,3.381 20.932,7.1 31.36,11.164 l 0,0 c 16.695,6.512 32.857,13.73 48.437,21.589 l 0,0 c -16.79,-4.763 -33.57,-10.386 -50.268,-16.896" />
                    </g>
                </g>
            </g>
        </g>
        <g
             id="g19553"
             transform="matrix(3.5066662,0,0,-3.5066662,267.48692,2972.8071)">
            <g
                 id="g19555">
                <g
                     id="g19561">
                    <g
                         id="g19563">
                        <path
                             id="path19575"
                             style="fill:url(#linearGradient19565);stroke:none"
                             d="M 64.48,731.187 C 52.116,725.927 40.067,720.292 28.346,714.315 l 0,0 0,-1.983 c 12.682,4.365 25.343,9.225 37.948,14.589 l 0,0 c 16.066,6.837 31.604,14.305 46.578,22.341 l 0,0 C 96.698,744.042 80.546,738.022 64.48,731.187" />
                    </g>
                </g>
            </g>
        </g>
        <g
             id="g19577"
             transform="matrix(3.5066662,0,0,-3.5066662,267.48692,2972.8071)">
            <g
                 id="g19579">
                <g
                     id="g19585">
                    <g
                         id="g19587">
                        <path
                             id="path19599"
                             style="fill:url(#linearGradient19589);stroke:none"
                             d="M 70.866,740.703 C 56.223,733.913 42.04,726.629 28.346,718.897 l 0,0 0,-0.473 c 14.815,5.471 29.602,11.607 44.307,18.424 l 0,0 c 13.988,6.484 27.553,13.423 40.674,20.77 l 0,0 0,0.825 C 99.131,753.147 84.962,747.236 70.866,740.703" />
                    </g>
                </g>
            </g>
        </g>
        <g
             id="g19601"
             transform="matrix(3.5066662,0,0,-3.5066662,267.48692,2972.8071)">
            <g
                 id="g19603">
                <g
                     id="g19609">
                    <g
                         id="g19611">
                        <path
                             id="path19623"
                             style="fill:url(#linearGradient19613);stroke:none"
                             d="M 103.536,762.52 C 94.678,758.557 85.838,754.356 77.03,749.913 l 0,0 C 62.098,742.385 47.669,734.372 33.768,725.934 l 0,0 c 15.052,6.157 30.071,12.996 45.005,20.525 l 0,0 c 10.181,5.135 20.132,10.495 29.837,16.061 l 0,0 -5.074,0 z" />
                    </g>
                </g>
            </g>
        </g>
        <g
             id="g19625"
             transform="matrix(3.5066662,0,0,-3.5066662,267.48692,2972.8071)">
            <g
                 id="g19627">
                <g
                     id="g19633">
                    <g
                         id="g19635">
                        <path
                             id="path19647"
                             style="fill:url(#linearGradient19637);stroke:none"
                             d="m 89.754,762.52 c -2.245,-1.197 -4.49,-2.411 -6.732,-3.639 l 0,0 C 68.614,750.985 54.692,742.68 41.282,734.018 l 0,0 c 14.52,6.639 29.012,13.904 43.42,21.797 l 0,0 c 4.019,2.204 8.002,4.438 11.947,6.705 l 0,0 -6.895,0 z" />
                    </g>
                </g>
            </g>
        </g>
        <g
             id="g19649"
             transform="matrix(3.5066662,0,0,-3.5066662,267.48692,2972.8071)">
            <g
                 id="g19651">
                <g
                     id="g19657">
                    <g
                         id="g19659">
                        <path
                             id="path19671"
                             style="fill:url(#linearGradient19661);stroke:none"
                             d="M 80.243,762.52 C 69.446,755.893 58.94,749.06 48.741,742.047 l 0,0 c 12.506,6.369 24.994,13.194 37.426,20.473 l 0,0 -5.924,0 z" />
                    </g>
                </g>
            </g>
        </g>
        <g
             id="g19673"
             transform="matrix(3.5066662,0,0,-3.5066662,267.48692,2972.8071)">
            <g
                 id="g19675">
                <g
                     id="g19681">
                    <g
                         id="g19683">
                        <path
                             id="path19695"
                             style="fill:url(#linearGradient19685);stroke:none"
                             d="m 73.698,762.52 c -5.923,-4.095 -11.75,-8.243 -17.479,-12.437 l 0,0 c 7.079,4.003 14.153,8.149 21.215,12.437 l 0,0 -3.736,0 z" />
                    </g>
                </g>
            </g>
        </g>
        <g
             id="g19697"
             transform="matrix(3.5066662,0,0,-3.5066662,267.48692,2972.8071)">
            <g
                 clip-path="url(#clipPath19701)"
                 id="g19699">
                <g
                     transform="translate(82.844498,690.81073)"
                     id="g19705">
                    <path
                         id="path19707"
                         style="fill:#150301;fill-opacity:1;fill-rule:nonzero;stroke:none"
                         d="M 0,0 C 0.402,1.107 1.498,1.352 1.992,1.356 3.217,1.367 3.553,0.641 3.445,-0.044 3.152,-1.941 2.494,-4.35 2.252,-5.119 2.248,-5.129 2.246,-5.14 2.244,-5.146 1.977,-5.986 1.186,-6.475 0.256,-6.475 c -0.942,0 -1.512,0.592 -1.43,1.347 C -1.035,-3.853 -0.229,-0.634 0,0 M 6.274,-8.801 C 8.709,-6.81 9.912,-3.443 9.875,-0.275 9.834,2.77 7.256,5.658 2.77,5.658 c -8.551,0 -9.795,-6.666 -10.043,-7.883 -0.623,-3.078 0.072,-7.072 4.088,-8.13 2.65,-0.698 6.794,-0.623 9.459,1.554 m 18.861,14.02 c -2.377,0.707 -5.319,-0.467 -6.774,-2.477 0.143,0.621 0.295,1.349 0.467,2.183 l -5.637,0 -3.3,-15.096 5.609,0 1.873,8.563 c 0.346,1.574 1.609,2.249 2.731,1.958 0.486,-0.131 1.15,-0.496 0.929,-1.809 l -1.904,-8.712 5.545,0 2.537,11.626 c 0.541,2.563 -1.563,3.61 -2.076,3.764 M -28.287,8.34 c 0,-0.477 0.111,-2.16 3.15,-2.16 2.528,0 3.5,1.617 3.5,2.825 0,0.812 -0.666,2.226 -3.152,2.226 -2.293,0 -3.498,-1.535 -3.498,-2.891 m 1.885,-18.511 3.384,15.185 -5.554,0 -3.385,-15.185 5.555,0 z m -17.713,10.393 3.984,-10.393 5.422,0 4.67,20.677 -5.584,-0.002 -2.361,-10.517 -3.911,10.525 -5.66,0 -4.613,-20.683 5.691,0 c 0.647,3.316 1.512,6.816 2.362,10.393 m 20.42,-10.393 4.59,20.677 5.654,-0.002 -2.465,-10.994 4.566,5.514 6.323,0 -5.674,-6.897 2.34,-8.298 -5.641,0 -2.334,7.864 -1.846,-7.864 -5.513,0 z" />
                </g>
            </g>
        </g>
    </g>
</svg>
