<?xml version="1.0" encoding="utf-8"?>
<!-- Generator: Adobe Illustrator 23.1.0, SVG Export Plug-In . SVG Version: 6.00 Build 0)  -->
<svg version="1.1" id="Layer_1" xmlns="http://www.w3.org/2000/svg" xmlns:xlink="http://www.w3.org/1999/xlink" x="0px" y="0px"
	 viewBox="0 0 608.8 147.2" style="enable-background:new 0 0 608.8 147.2;" xml:space="preserve">
<style type="text/css">
	.st0{fill:none;}
	.st1{fill:#F50514;}
</style>
<rect x="-64" y="-40.7" class="st0" width="736.8" height="253.2"/>
<path class="st1" d="M157.3,86.1c0-20.3,12.7-35.5,32.8-35.5c20.1,0,32.7,15.1,32.7,35.4s-12.6,35.4-32.7,35.4
	C170,121.5,157.3,106.4,157.3,86.1z M208.7,86.1c0-13.6-6.1-24.1-18.5-24.1c-12.4,0-18.8,10.5-18.8,24.1c0,13.5,6.4,24,18.8,24
	S208.7,99.6,208.7,86.1z M234.5,119.9h13.6V84.9c0-4.8-0.4-11.9-0.4-11.9h0.2c0,0,2.7,5.8,4.9,9.4l23.2,37.5h13.3V52h-13.6v35.6
	c0,4.8,0.4,11.8,0.4,11.8h-0.2c0,0-2.6-5.8-4.8-9.5L248.5,52h-14L234.5,119.9L234.5,119.9z M305,119.9h50.3v-11.5h-36.5V90.1h31.8
	V78.8h-31.8V63.6H355V52h-50L305,119.9L305,119.9z M368.5,52h29.9c7.9,0,13.8,2.3,17.8,6.4c3.8,3.9,6.1,9.2,6.1,15.5
	c0,12.8-8.5,21.5-22.7,21.5h-16.7v24.6h-14.3L368.5,52L368.5,52z M382.8,84.1h14.3c7.2,0,11-4,11-10.2c0-6.4-4-10-10.8-10h-14.5
	L382.8,84.1L382.8,84.1z M432.4,119.9h45.7v-11.5h-31.9V52h-13.8L432.4,119.9L432.4,119.9z M485.5,98.1c0,14.7,9.2,23,26.8,23
	c17.4,0,26.3-8.5,26.3-23V52h-13.8v45.9c0,7-4.1,12.2-12.8,12.2c-9.2,0-12.7-4.9-12.7-12V52h-13.8L485.5,98.1L485.5,98.1z
	 M548.3,98.9c0.5,14.4,10.9,22.5,29.4,22.5c15.3,0,26.4-7.7,26.4-21.5c0-14.6-11.4-18-25.4-21c-10.1-2.2-14.8-3.8-14.8-9.3
	c0-4.8,4.8-8,12.3-8c7,0,12.4,3.4,13.1,10.3h13.2c-1-13.7-10.9-21.2-26.2-21.2c-15.1,0-26,6.9-26,20.3c0,14.2,11.1,17.4,23.3,20.1
	c10.4,2.4,16.8,3.7,16.8,10.4c0,6.3-6.2,8.8-13.2,8.8c-9.7,0-14.3-3.2-15.3-11.4L548.3,98.9L548.3,98.9z M4.7,28v115.9h115.9V77.7
	h-12.9V131H17.6V40.9h53.3V28H4.7z M107.7,6.6V28H86.2v12.9h21.5v21.5h12.9V40.9H142V28h-21.5V6.6H107.7z M70.8,113.9V57.3H59.4
	c0,3.9-1.3,6.8-3.3,8.6c-2.1,1.7-5.2,2.5-8.9,2.5h-1.4v9.3H58v36.1H70.8z"/>
</svg>
