<?xml version="1.0" encoding="UTF-8"?>
<!DOCTYPE svg PUBLIC "-//W3C//DTD SVG 1.1//EN" "http://www.w3.org/Graphics/SVG/1.1/DTD/svg11.dtd">
<!-- Creator: CorelDRAW -->
<svg xmlns="http://www.w3.org/2000/svg" xml:space="preserve" width="240mm" height="45mm" shape-rendering="geometricPrecision" text-rendering="geometricPrecision" image-rendering="optimizeQuality" fill-rule="evenodd" clip-rule="evenodd"
viewBox="0 0 240 53.0653">
 <g id="Ebene_x0020_1">
  <metadata id="CorelCorpID_0Corel-Layer"/>
  <g id="_185793120">
   <polygon id="_182545816" fill="#DA2128" fill-rule="nonzero" points="53.9796,2.57029 64.014,2.57029 64.014,50.2878 53.9796,50.2878 "/>
   <path id="_181580040" fill="#DA2128" d="M221.092 2.57029l-14.336 0 -19.2505 47.7175 10.4425 0 3.68804 -9.216 23.5498 0 3.48133 9.216 10.8563 0 -18.4315 -47.7175zm-7.37487 29.9001l-8.8039 0 8.8039 -21.5013 8.19389 21.5013 -8.19389 0z"/>
   <polygon id="_184322288" fill="#DA2128" points="164.568,2.77749 156.786,30.0152 149.004,2.77749 135.691,2.77749 127.908,50.2878 137.945,50.2878 143.065,15.4726 152.485,50.2878 161.087,50.2878 170.505,15.4726 175.218,50.2878 185.662,50.2878 178.085,2.77749 "/>
   <path id="_182658000" fill="#DA2128" d="M35.7507 22.2305c-4.04768,-0.706251 -10.2456,-1.07168 -10.8523,-1.22641 -0.662472,-0.040402 -7.23365,-0.325628 -9.62689,-1.02392 -4.03574,-1.09616 -3.68635,-4.23268 -3.68466,-4.71244 -0.00168844,-0.98798 -0.320925,-5.36297 11.6736,-5.73238 12.0105,-0.272563 20.0575,3.62424 20.0694,3.68466l2.25093 -8.80462c-0.0762211,0.0506533 -7.86428,-4.0033 -21.7081,-4.09773 -9.08732,0.0944322 -14.7958,2.54798 -16.9984,4.09773 -1.94135,1.35172 -6.04306,4.79506 -6.34637,10.8523 -0.516181,6.63787 2.97769,10.5489 4.50356,11.6752 1.70062,1.41552 3.83252,2.10814 6.55526,2.66243 1.86513,0.620382 8.16374,1.34545 9.42042,1.43144 3.21672,0.361327 7.27007,0.309588 11.2637,1.23099 3.41946,0.997749 3.63232,3.7768 3.68635,4.91506 -0.0540302,2.10814 -1.22653,6.0556 -12.6968,6.14388 -11.3566,-0.0882814 -19.9961,-4.08808 -20.07,-4.09785l-1.84354 9.21781c-0.00168844,0.0722412 7.99755,3.69817 21.9136,4.30034 2.61576,0.0341307 9.26774,-0.869065 10.8517,-1.43361 1.68458,-0.662472 13.0986,-3.43538 13.1088,-14.5421 -0.0102513,-11.2922 -7.47666,-13.6394 -11.4703,-14.5409z"/>
   <path id="_185490352" fill="#DA2128" d="M95.9602 22.8469l0 8.39711 16.5881 0c0.0722412,-0.0746533 0.847477,6.69986 -3.88896,10.2393 -2.78641,1.77286 -7.03333,1.88153 -8.80788,1.84342 -7.26223,0.0381106 -9.17572,-0.841206 -11.8763,-2.66243 -4.97307,-2.98565 -6.3805,-9.59904 -6.34866,-13.7214 -0.0318392,-8.30424 3.0158,-11.6689 5.11996,-13.3137 2.25093,-1.83895 5.10175,-3.78826 13.105,-3.88896 2.70452,-0.0460704 5.07558,0.0824925 8.19377,0.817327 5.01528,0.985688 10.129,2.97371 10.0328,3.07164l2.45753 -8.3965c-0.0746533,-0.0841809 -9.2201,-4.67373 -20.8874,-4.70786 -13.0265,0.0341307 -20.0654,4.30034 -23.7581,9.2154 -3.69419,5.21439 -5.21379,9.42259 -5.11996,17.6102 -0.0938291,7.8205 3.21286,13.9541 4.71075,15.7691 1.36306,1.52189 7.46255,9.65138 23.3466,9.42259 7.52117,-0.0944322 15.3212,-1.99369 19.6619,-6.34866 3.56575,-3.75859 4.66637,-7.39646 5.11996,-14.9495 0.261226,-2.67835 0.0262915,-8.4568 0,-8.39711l-27.6492 0z"/>
  </g>
 </g>
</svg>
