<?xml version="1.0" standalone="no"?><!DOCTYPE svg PUBLIC "-//W3C//DTD SVG 1.1//EN" "http://www.w3.org/Graphics/SVG/1.1/DTD/svg11.dtd"><svg t="1705293627424" class="icon" viewBox="0 0 1024 1024" version="1.1" xmlns="http://www.w3.org/2000/svg" p-id="4598" xmlns:xlink="http://www.w3.org/1999/xlink" width="200" height="200"><path d="M512 46.545455c256 0 465.454545 207.127273 465.454545 463.127272C977.454545 770.327273 770.327273 977.454545 507.345455 977.454545 253.672727 977.454545 46.545455 768 46.545455 512 46.545455 253.672727 253.672727 46.545455 512 46.545455z m267.636364 286.254545c0-2.327273 2.327273-2.327273 2.327272-4.654545-4.654545-2.327273-9.309091-6.981818-13.963636-9.309091-51.2-34.909091-104.727273-60.509091-162.909091-79.127273-86.109091-27.927273-172.218182-32.581818-260.654545-23.272727-13.963636 2.327273-23.272727 6.981818-23.272728 23.272727 0 20.945455 0 41.890909 2.327273 62.836364 0 4.654545 11.636364 13.963636 16.290909 13.963636 27.927273 2.327273 53.527273 2.327273 81.454546 4.654545 37.236364 2.327273 60.509091 23.272727 58.181818 60.509091-2.327273 60.509091-2.327273 118.690909-4.654546 179.2-2.327273 72.145455-4.654545 144.290909-4.654545 216.436364 0 39.563636 13.963636 69.818182 48.872727 86.109091 16.290909 6.981818 25.6 2.327273 27.927273-16.290909v-13.963637-449.163636c0-41.890909 25.6-65.163636 67.490909-60.509091 16.290909 2.327273 34.909091 2.327273 51.2 4.654546 39.563636 0 76.8 2.327273 114.036364 4.654545z" fill="#C83D38" p-id="4599"></path></svg>