<?xml version="1.0" encoding="UTF-8" standalone="no"?>
<!-- Created with Inkscape (http://www.inkscape.org/) -->
<svg
   xmlns:svg="http://www.w3.org/2000/svg"
   xmlns="http://www.w3.org/2000/svg"
   version="1.0"
   width="1078.2283"
   height="242.71652"
   id="svg2">
  <defs
     id="defs4" />
  <g
     transform="translate(-582.44574,440.0751)"
     id="layer1">
    <g
       transform="translate(35.477856,35.458606)"
       id="g3108">
      <path
         d="M 742.00631,-437.85412 L 582.44574,-437.85412 L 582.44574,-397.07345 L 639.00952,-397.07345 L 639.00952,-270.445 L 684.54522,-270.445 L 684.54522,-397.07345 L 742.00631,-397.07345 L 742.00631,-437.85412"
         id="path2684"
         style="fill:#3e5ba1;fill-opacity:1;fill-rule:nonzero;stroke:none" />
      <path
         d="M 779.56821,-334.15315 L 796.58465,-400.7409 L 805.01058,-400.7409 L 822.03685,-334.15315 L 779.56821,-334.15315 M 838.28522,-270.42583 L 886.03546,-270.445 L 839.18277,-437.85412 L 762.41608,-437.85412 L 715.5922,-270.445 L 763.31989,-270.42583 L 770.17048,-297.38874 L 831.43789,-297.38874 L 838.28522,-270.42583"
         id="path2686"
         style="fill:#3e5ba1;fill-opacity:1;fill-rule:nonzero;stroke:none" />
      <path
         d="M 1096.8937,-407.88208 C 1096.8937,-424.34014 1083.5547,-437.76358 1067.0752,-437.85412 L 898.80023,-437.85412 L 898.80023,-270.445 L 944.36004,-270.445 L 944.36004,-397.07345 L 975.08099,-397.07345 L 975.08099,-270.445 L 1020.6252,-270.445 L 1020.6252,-397.07345 L 1041.0815,-397.07345 L 1041.0815,-396.9831 C 1041.0815,-396.9831 1041.3659,-397.01553 1041.5213,-397.01553 C 1046.913,-397.01553 1051.3032,-392.74733 1051.3032,-387.36249 C 1051.3032,-386.72346 1051.3594,-270.445 1051.3594,-270.445 L 1096.8342,-270.445 L 1096.8937,-407.88208"
         id="path2688"
         style="fill:#3e5ba1;fill-opacity:1;fill-rule:nonzero;stroke:none" />
      <path
         d="M 1589.7183,-407.88208 C 1589.7183,-424.34014 1576.3529,-437.76358 1559.8734,-437.85412 L 1444.1201,-437.85412 L 1444.1201,-270.445 L 1489.6645,-270.445 L 1489.6645,-397.07345 L 1533.8665,-397.07345 L 1533.8665,-396.9831 C 1533.8665,-396.9831 1534.164,-397.01553 1534.3063,-397.01553 C 1539.7113,-397.01553 1544.108,-392.74733 1544.108,-387.36249 C 1544.108,-386.72346 1544.1344,-270.445 1544.1344,-270.445 L 1589.6985,-270.445 L 1589.6985,-395.58842 C 1589.6985,-395.58842 1589.7183,-403.47205 1589.7183,-407.88208"
         id="path2690"
         style="fill:#3e5ba1;fill-opacity:1;fill-rule:nonzero;stroke:none" />
      <path
         d="M 1157.896,-396.93796 C 1157.896,-396.93796 1201.1691,-396.87973 1201.3278,-396.87973 C 1206.7328,-396.87973 1211.1098,-392.61189 1211.1098,-387.22072 L 1211.1427,-368.44462 C 1211.1427,-358.33982 1205.2485,-354.62078 1197.384,-354.62078 L 1157.896,-354.62078 L 1157.896,-396.93796 M 1256.9151,-407.74007 C 1256.9151,-424.23695 1243.5893,-437.60229 1227.0834,-437.7185 L 1112.3484,-437.7185 L 1112.3484,-270.32897 L 1157.896,-270.32897 L 1157.896,-314.65406 C 1157.896,-314.65406 1198.2501,-314.62169 1198.3988,-314.62169 C 1203.7906,-314.62169 1208.1807,-310.37326 1208.1807,-304.94978 C 1208.1807,-304.83972 1208.1807,-304.62683 1208.2006,-304.4527 L 1208.2006,-270.32897 L 1255.5796,-270.32897 L 1255.5796,-312.96879 L 1255.52,-312.96879 C 1253.001,-327.31575 1246.1712,-332.16458 1235.338,-335.86427 L 1235.1694,-335.88362 C 1246.9183,-339.21528 1255.7448,-349.47493 1256.8887,-361.98804 L 1256.9151,-361.98804 C 1256.9151,-361.98804 1257.5102,-369.94913 1257.5102,-386.0068 C 1257.5102,-402.06452 1256.9151,-407.74007 1256.9151,-407.74007"
         id="path2692"
         style="fill:#3e5ba1;fill-opacity:1;fill-rule:nonzero;stroke:none" />
      <path
         d="M 1382.6519,-371.05962 C 1382.6519,-397.88065 1376.1195,-398.73286 1350.2846,-398.73286 C 1324.4529,-398.73286 1317.924,-397.88065 1317.924,-371.05962 L 1317.924,-337.26523 C 1317.924,-310.44445 1324.4529,-309.59187 1350.2846,-309.59187 C 1376.1195,-309.59187 1382.6519,-310.44445 1382.6519,-337.26523 L 1382.6519,-371.05962 M 1429.8887,-354.56286 L 1429.8887,-330.61499 C 1429.8887,-274.62924 1410.5629,-268.27579 1350.2648,-268.27579 C 1289.9733,-268.27579 1270.621,-274.62924 1270.621,-330.61499 L 1270.621,-377.72945 C 1270.621,-433.67018 1289.9733,-440.0751 1350.2648,-440.0751 C 1410.5629,-440.0751 1429.8887,-433.67018 1429.8887,-377.72945 L 1429.8887,-354.56286"
         id="path2694"
         style="fill:#3e5ba1;fill-opacity:1;fill-rule:nonzero;stroke:none" />
    </g>
  </g>
</svg>
